<svg data-v-423bf9ae="" xmlns="http://www.w3.org/2000/svg" viewBox="0 0 585 90" class="iconLeftSlogan"><!----><!----><!----><g data-v-423bf9ae="" id="5e87a6e6-dd72-4085-be2d-c415d4de0665" fill="#ffffff" transform="matrix(5.494505456117445,0,0,5.494505456117445,128.46577735679557,-16.70329637699829)"><path d="M1.32 13.78L4.24 13.78C6.24 13.78 7.71 12.91 7.71 11.06C7.71 9.80 6.99 9.10 5.66 8.88L5.66 8.82C6.73 8.53 7.25 7.67 7.25 6.80C7.25 5.11 5.88 4.54 4.00 4.54L1.32 4.54ZM2.93 8.37L2.93 5.80L3.89 5.80C5.08 5.80 5.67 6.15 5.67 7C5.67 7.87 5.14 8.37 3.85 8.37ZM2.93 12.52L2.93 9.53L4.07 9.53C5.45 9.53 6.13 9.97 6.13 10.96C6.13 12.01 5.42 12.52 4.07 12.52ZM12.73 5.42C13.41 5.42 13.92 4.96 13.92 4.24C13.92 3.53 13.41 3.04 12.73 3.04C12.05 3.04 11.54 3.53 11.54 4.24C11.54 4.96 12.05 5.42 12.73 5.42ZM9.53 13.78L16.16 13.78L16.16 12.46L13.65 12.46L13.65 6.64L9.53 6.64L9.53 7.91L12.04 7.91L12.04 12.46L9.53 12.46ZM21.41 13.96C23.00 13.96 24.46 12.53 24.46 10.08C24.46 7.88 23.42 6.45 21.64 6.45C20.90 6.45 20.12 6.83 19.52 7.43L19.56 6.16L19.56 3.63L17.96 3.63L17.96 13.78L19.22 13.78L19.36 12.98L19.40 12.98C20.02 13.59 20.76 13.96 21.41 13.96ZM21.08 12.63C20.66 12.63 20.08 12.43 19.56 11.94L19.56 8.68C20.13 8.06 20.68 7.78 21.21 7.78C22.32 7.78 22.81 8.67 22.81 10.11C22.81 11.75 22.06 12.63 21.08 12.63ZM29.53 5.42C30.21 5.42 30.72 4.96 30.72 4.24C30.72 3.53 30.21 3.04 29.53 3.04C28.85 3.04 28.34 3.53 28.34 4.24C28.34 4.96 28.85 5.42 29.53 5.42ZM26.33 13.78L32.96 13.78L32.96 12.46L30.45 12.46L30.45 6.64L26.33 6.64L26.33 7.91L28.84 7.91L28.84 12.46L26.33 12.46ZM39.21 13.96C40.01 13.96 40.50 13.78 41.17 13.54L40.80 12.35C40.32 12.56 39.96 12.64 39.61 12.64C38.91 12.64 38.37 12.26 38.37 11.30L38.37 3.63L34.61 3.63L34.61 4.90L36.78 4.90L36.78 11.20C36.78 12.95 37.62 13.96 39.21 13.96ZM46.20 13.96C48.02 13.96 49.66 12.59 49.66 10.21C49.66 7.83 48.02 6.45 46.20 6.45C44.39 6.45 42.76 7.83 42.76 10.21C42.76 12.59 44.39 13.96 46.20 13.96ZM46.20 12.64C45.08 12.64 44.41 11.68 44.41 10.21C44.41 8.75 45.08 7.77 46.20 7.77C47.33 7.77 48.01 8.75 48.01 10.21C48.01 11.68 47.33 12.64 46.20 12.64ZM53.79 13.78L55.41 13.78L55.41 5.89L58.30 5.89L58.30 4.54L50.92 4.54L50.92 5.89L53.79 5.89ZM63.42 13.96C64.43 13.96 65.38 13.59 66.11 13.12L65.56 12.11C64.95 12.49 64.34 12.70 63.63 12.70C62.38 12.70 61.42 11.96 61.32 10.64L66.32 10.64C66.35 10.46 66.39 10.15 66.39 9.84C66.39 7.87 65.25 6.45 63.21 6.45C61.40 6.45 59.67 7.88 59.67 10.21C59.67 12.56 61.33 13.96 63.42 13.96ZM61.31 9.53C61.49 8.34 62.31 7.70 63.24 7.70C64.33 7.70 64.92 8.39 64.92 9.53ZM72.03 13.96C73.01 13.96 74.02 13.57 74.82 12.87L74.14 11.84C73.61 12.28 72.95 12.64 72.17 12.64C70.81 12.64 69.89 11.68 69.89 10.21C69.89 8.75 70.84 7.77 72.21 7.77C72.83 7.77 73.37 8.01 73.92 8.48L74.68 7.48C74.10 6.90 73.23 6.45 72.14 6.45C70.04 6.45 68.24 7.83 68.24 10.21C68.24 12.59 69.87 13.96 72.03 13.96ZM76.76 13.78L78.36 13.78L78.36 8.89C79.00 8.19 79.46 7.83 80.15 7.83C81.09 7.83 81.44 8.39 81.44 9.56L81.44 13.78L83.05 13.78L83.05 9.35C83.05 7.50 82.32 6.45 80.74 6.45C79.69 6.45 78.92 7.03 78.27 7.71L78.36 6.16L78.36 3.63L76.76 3.63Z"></path></g><!----><g data-v-423bf9ae="" id="c8a515cc-b200-4903-bd7e-a4d51cfb9fbb" transform="matrix(1.271186385884845,0,0,1.271186385884845,-4.9082348160251,-19.28474469008175)" stroke="none" fill="#776957"><path d="M94.7 47.1v-.7l-.2-.1-.9-.3h-.1L90 44.9l-3.5 1.5-.7.2-22.9 10.6-4 1.9-4.9 2.1h-.1l-.3-.1-2.8-.7-5.4-1.5-2-.7h-.1l-3.2-.9-.8-.2-.2-.1-.4-.1h-.1l-3.7-1-16-4.4-.3-.1-4-1.2s0-.1-.1-.1c-3.5-3.1-2.7-8.6-1-12.5l17.1 5h.2l3.7 1.1h.1l.4.1 4 1.2.5.2 1.2.3 4.2 1.2.6.2.3.1 2.4.8 1.9.6 1.4.4h.1l1.2.3.6.2.4-.2 2.5-1.2.4-.2.2-.1 5.2-2.3 8-3.6.6-.2 3.5-1.5L89 33.4l.4-.2 3.9-1.7v-.2l.4-.2-.2-2.9-42.4-12.4-40.1 18c-.5.3-1 .8-1.3 1.2-4.5 4.1-3.1 13.1.1 17.4l-1.8.8c-.5.3-1 .8-1.3 1.2C1.3 59.5 4.5 71.6 9 73.8l42.9 12.8 40-17.9v-.2l-.1-2.1v-.7l-.2-.1-.9-.3h-.1L87 64.2 51 80.5h-.1l-.2-.1-35-9.5-4-1.2-.1-.1c-3.6-3-2.8-8.6-1-12.6L28 62.2l3.9 1.2 17 5.1h.1l1.7.5.4-.2 3.2-1.4 17.3-7.7L86.5 53l.4-.2 3.9-1.7V51l4.1-1.9-.2-2zM49.3 20.5l32.2 9.7-5.3 2.2-31.5-9.5 4.6-2.4zm-9 4l32.2 9.7-5.3 2.2-31.5-9.5 4.6-2.4z"></path></g><!----><g data-v-423bf9ae="" id="b5074ed0-9e26-4f34-b283-56d18af0e8f0" fill="#ffffff" transform="matrix(1.7822730249546341,0,0,1.7822730249546341,135.1481875793842,55.1165706099572)"><path d="M0.71 3.64L0.32 3.64L0.33 3.08L3.55 3.08L3.55 3.08Q4.69 3.08 5.29 3.21L5.29 3.21L5.29 3.21Q5.93 3.37 6.40 3.75L6.40 3.75L6.40 3.75Q7.40 4.57 7.40 5.71L7.40 5.71L7.40 5.71Q7.40 6.43 6.93 7.04L6.93 7.04L6.93 7.04Q6.44 7.66 5.41 7.92L5.41 7.92L8.09 11.49L8.09 11.49Q8.40 11.87 8.70 11.87L8.70 11.87L9.30 11.87L9.32 12.41L7.29 12.41L4.30 8.10L4.13 8.10L4.13 8.10Q4.09 8.10 4.03 8.11L4.03 8.11L4.03 8.11Q3.98 8.11 3.96 8.11L3.96 8.11L3.96 8.11Q3.08 8.11 2.69 8.03L2.69 8.03L2.69 11.46L2.69 11.46Q2.69 11.76 2.83 11.81L2.83 11.81L2.83 11.81Q2.95 11.87 3.66 11.87L3.66 11.87L4.37 11.87L4.34 12.41L0.62 12.41L0.62 11.87L0.94 11.87L0.94 11.87Q1.40 11.87 1.47 11.81L1.47 11.81L1.47 11.81Q1.55 11.74 1.55 11.46L1.55 11.46L1.55 4.14L1.55 4.14Q1.55 3.82 1.36 3.73L1.36 3.73L1.36 3.73Q1.13 3.64 0.71 3.64L0.71 3.64ZM2.69 4.28L2.69 7.57L2.69 7.57Q2.87 7.70 3.58 7.71L3.58 7.71L3.58 7.71Q4.85 7.71 5.43 7.27L5.43 7.27L5.43 7.27Q6.02 6.84 6.02 5.92L6.02 5.92L6.02 5.92Q6.02 4.92 5.25 4.27L5.25 4.27L5.25 4.27Q4.49 3.64 3.11 3.64L3.11 3.64L3.11 3.64Q2.86 3.64 2.78 3.75L2.78 3.75L2.78 3.75Q2.69 3.84 2.69 4.28L2.69 4.28ZM17.09 3.64L17.08 3.08L24.29 3.08L24.29 3.08Q24.30 4.14 24.36 5.28L24.36 5.28L23.81 5.30L23.81 5.30Q23.80 4.66 23.74 4.25L23.74 4.25L23.74 4.25Q23.70 3.89 23.65 3.80L23.65 3.80L23.65 3.80Q23.59 3.71 23.47 3.69L23.47 3.69L23.47 3.69Q23.38 3.68 22.79 3.68L22.79 3.68L20.41 3.68L20.41 3.68Q19.87 3.68 19.72 3.77L19.72 3.77L19.72 3.77Q19.60 3.86 19.60 4.33L19.60 4.33L19.60 6.28L19.60 6.28Q19.60 6.69 19.65 6.76L19.65 6.76L19.65 6.76Q19.72 6.84 20.06 6.84L20.06 6.84L22.18 6.84L22.18 6.84Q22.54 6.84 22.62 6.73L22.62 6.73L22.62 6.73Q22.70 6.63 22.71 6.14L22.71 6.14L22.71 5.61L23.22 5.63L23.22 8.97L22.71 8.97L22.71 8.24L22.71 8.24Q22.71 7.66 22.63 7.57L22.63 7.57L22.63 7.57Q22.55 7.46 22.20 7.46L22.20 7.46L20.10 7.46L20.10 7.46Q19.77 7.46 19.68 7.54L19.68 7.54L19.68 7.54Q19.60 7.63 19.60 7.89L19.60 7.89L19.60 11.20L19.60 11.20Q19.60 11.57 19.68 11.67L19.68 11.67L19.68 11.67Q19.77 11.77 20.04 11.77L20.04 11.77L20.04 11.77Q22.96 11.75 23.49 11.69L23.49 11.69L23.49 11.69Q24.01 11.63 24.09 11.38L24.09 11.38L24.10 11.36L24.10 11.35L24.33 10.17L24.81 10.25L24.46 12.41L17.36 12.41L17.36 11.87L17.73 11.87L17.73 11.87Q18.29 11.87 18.37 11.80L18.37 11.80L18.37 11.80Q18.46 11.72 18.46 11.33L18.46 11.33L18.46 4.24L18.46 4.24Q18.46 3.82 18.31 3.73L18.31 3.73L18.31 3.73Q18.14 3.64 17.49 3.64L17.49 3.64L17.09 3.64ZM32.70 12.41L32.68 11.87L32.85 11.87L32.85 11.87Q33.24 11.87 33.37 11.73L33.37 11.73L33.37 11.73Q33.50 11.57 33.83 10.83L33.83 10.83L34.74 8.82L35.31 7.53L35.31 7.53Q35.58 6.97 35.62 6.86L35.62 6.86L35.62 6.86Q35.69 6.70 35.74 6.60L35.74 6.60L35.74 6.60Q35.79 6.51 35.81 6.45L35.81 6.45L35.90 6.21L37.33 2.74L37.63 2.74L37.63 2.74Q38.48 4.98 40.67 10.25L40.67 10.25L40.67 10.25Q41.12 11.34 41.31 11.64L41.31 11.64L41.31 11.64Q41.45 11.87 41.88 11.87L41.88 11.87L42.10 11.87L42.08 12.41L38.89 12.41L38.90 11.87L39.32 11.87L39.32 11.87Q39.94 11.87 39.94 11.70L39.94 11.70L39.94 11.70Q39.94 11.63 39.80 11.27L39.80 11.27L38.76 8.72L35.51 8.72L34.41 11.18L34.41 11.18Q34.27 11.50 34.27 11.63L34.27 11.63L34.27 11.63Q34.27 11.79 34.36 11.83L34.36 11.83L34.36 11.83Q34.46 11.87 34.84 11.87L34.84 11.87L35.42 11.87L35.42 12.41L32.70 12.41ZM37.19 4.79L35.78 8.10L38.52 8.10L37.19 4.79ZM49.87 3.64L49.83 3.08L53.61 3.08L53.61 3.08Q54.93 3.08 55.79 3.19L55.79 3.19L55.79 3.19Q56.62 3.29 57.31 3.69L57.31 3.69L57.31 3.69Q58.26 4.27 58.76 5.24L58.76 5.24L58.76 5.24Q59.25 6.21 59.25 7.39L59.25 7.39L59.25 7.39Q59.25 8.05 59.11 8.65L59.11 8.65L59.11 8.65Q58.95 9.29 58.56 9.98L58.56 9.98L58.56 9.98Q58.13 10.73 57.57 11.21L57.57 11.21L57.57 11.21Q56.94 11.76 55.97 12.08L55.97 12.08L55.97 12.08Q54.97 12.41 53.70 12.41L53.70 12.41L50.08 12.41L50.07 11.87L50.44 11.87L50.44 11.87Q50.96 11.87 51.06 11.79L51.06 11.79L51.06 11.79Q51.17 11.70 51.17 11.25L51.17 11.25L51.17 4.14L51.17 4.14Q51.17 3.77 51.08 3.71L51.08 3.71L51.08 3.71Q50.97 3.64 50.46 3.64L50.46 3.64L49.87 3.64ZM52.31 4.39L52.31 11.22L52.31 11.22Q52.31 11.67 52.47 11.77L52.47 11.77L52.47 11.77Q52.63 11.87 53.50 11.87L53.50 11.87L53.50 11.87Q54.55 11.87 55.34 11.61L55.34 11.61L55.34 11.61Q56.20 11.35 56.64 10.99L56.64 10.99L56.64 10.99Q57.13 10.58 57.43 10.05L57.43 10.05L57.43 10.05Q57.74 9.52 57.87 8.96L57.87 8.96L57.87 8.96Q57.99 8.41 57.99 7.82L57.99 7.82L57.99 7.82Q57.99 7.03 57.72 6.34L57.72 6.34L57.72 6.34Q57.46 5.65 56.93 5.05L56.93 5.05L56.93 5.05Q56.40 4.46 55.49 4.09L55.49 4.09L55.49 4.09Q54.56 3.73 53.40 3.73L53.40 3.73L52.88 3.73L52.88 3.73Q52.52 3.73 52.42 3.85L52.42 3.85L52.42 3.85Q52.31 3.99 52.31 4.39L52.31 4.39ZM77.08 5.35L76.58 5.33L76.58 5.33Q76.70 4.17 76.78 3.08L76.78 3.08L84.86 3.08L84.86 3.08Q84.78 4.13 84.75 4.53L84.75 4.53L84.75 4.53Q84.71 5.26 84.69 5.32L84.69 5.32L84.19 5.30L84.19 5.30Q84.27 4.34 84.27 4.16L84.27 4.16L84.27 4.16Q84.27 3.88 84.13 3.79L84.13 3.79L84.13 3.79Q83.96 3.69 83.56 3.69L83.56 3.69L81.95 3.69L81.95 3.69Q81.44 3.69 81.32 3.79L81.32 3.79L81.32 3.79Q81.22 3.87 81.22 4.36L81.22 4.36L81.22 11.22L81.22 11.22Q81.22 11.66 81.36 11.76L81.36 11.76L81.36 11.76Q81.52 11.87 82.03 11.87L82.03 11.87L82.59 11.87L82.61 12.41L78.91 12.40L78.91 11.87L79.13 11.87L79.13 11.87Q79.80 11.87 79.95 11.79L79.95 11.79L79.95 11.79Q80.09 11.70 80.09 11.28L80.09 11.28L80.09 4.48L80.09 4.48Q80.09 3.92 79.99 3.80L79.99 3.80L79.99 3.80Q79.89 3.69 79.47 3.69L79.47 3.69L78.00 3.69L78.00 3.69Q77.81 3.69 77.75 3.71L77.75 3.71L77.75 3.71Q77.68 3.72 77.57 3.72L77.57 3.72L77.57 3.72Q77.54 3.72 77.42 3.79L77.42 3.79L77.42 3.79Q77.34 3.84 77.31 3.86L77.31 3.86L77.31 3.86Q77.29 3.88 77.25 3.99L77.25 3.99L77.25 3.99Q77.22 4.05 77.19 4.14L77.19 4.14L77.19 4.14Q77.16 4.21 77.14 4.36L77.14 4.36L77.14 4.36Q77.12 4.59 77.12 4.61L77.12 4.61L77.12 4.61Q77.12 4.80 77.10 4.95L77.10 4.95L77.10 4.95Q77.10 5.02 77.10 5.15L77.10 5.15L77.10 5.15Q77.09 5.29 77.08 5.35L77.08 5.35ZM92.98 7.83L92.98 7.83L92.98 7.83Q92.98 6.62 93.39 5.68L93.39 5.68L93.39 5.68Q93.80 4.72 94.49 4.12L94.49 4.12L94.49 4.12Q95.18 3.51 96.04 3.19L96.04 3.19L96.04 3.19Q96.89 2.88 97.84 2.88L97.84 2.88L97.84 2.88Q99.09 2.88 100.15 3.40L100.15 3.40L100.15 3.40Q101.23 3.93 101.94 5.07L101.94 5.07L101.94 5.07Q102.63 6.17 102.64 7.75L102.64 7.75L102.64 7.75Q102.64 8.70 102.33 9.54L102.33 9.54L102.33 9.54Q102.03 10.38 101.42 11.10L101.42 11.10L101.42 11.10Q100.82 11.81 99.88 12.22L99.88 12.22L99.88 12.22Q98.92 12.63 97.73 12.64L97.73 12.64L97.73 12.64Q96.59 12.64 95.66 12.23L95.66 12.23L95.66 12.23Q94.72 11.83 94.16 11.14L94.16 11.14L94.16 11.14Q93.58 10.45 93.29 9.60L93.29 9.60L93.29 9.60Q92.98 8.72 92.98 7.83ZM94.24 7.38L94.24 7.38L94.24 7.38Q94.24 8.52 94.67 9.60L94.67 9.60L94.67 9.60Q95.07 10.64 96.00 11.33L96.00 11.33L96.00 11.33Q96.91 12.03 98.10 12.04L98.10 12.04L98.10 12.04Q99.48 12.04 100.41 11.01L100.41 11.01L100.41 11.01Q101.36 9.97 101.36 8.10L101.36 8.10L101.36 8.10Q101.36 5.99 100.20 4.72L100.20 4.72L100.20 4.72Q99.05 3.46 97.54 3.45L97.54 3.45L97.54 3.45Q97.02 3.45 96.48 3.65L96.48 3.65L96.48 3.65Q95.94 3.85 95.43 4.25L95.43 4.25L95.43 4.25Q94.88 4.68 94.56 5.48L94.56 5.48L94.56 5.48Q94.24 6.27 94.24 7.38ZM111.14 8.24L111.14 8.24L111.14 8.24Q111.14 6.92 111.75 5.72L111.75 5.72L111.75 5.72Q112.37 4.52 113.60 3.72L113.60 3.72L113.60 3.72Q114.84 2.92 116.46 2.92L116.46 2.92L116.46 2.92Q117.73 2.92 119.31 3.57L119.31 3.57L119.31 2.86L119.88 2.86L119.97 5.92L119.42 5.93L119.33 4.48L119.33 4.48Q119.25 4.41 118.97 4.24L118.97 4.24L118.97 4.24Q118.72 4.07 117.97 3.83L117.97 3.83L117.97 3.83Q117.24 3.60 116.34 3.60L116.34 3.60L116.34 3.60Q115.36 3.60 114.59 3.93L114.59 3.93L114.59 3.93Q113.83 4.27 113.36 4.83L113.36 4.83L113.36 4.83Q112.90 5.39 112.65 6.08L112.65 6.08L112.65 6.08Q112.40 6.78 112.40 7.57L112.40 7.57L112.40 7.57Q112.40 9.33 113.52 10.69L113.52 10.69L113.52 10.69Q114.64 12.05 116.50 12.05L116.50 12.05L116.50 12.05Q117.20 12.05 117.83 11.85L117.83 11.85L117.83 11.85Q118.46 11.66 118.68 11.48L118.68 11.48L118.92 11.28L118.92 8.78L117.26 8.78L117.24 8.23L121.11 8.23L121.12 8.78L120.05 8.78L120.05 11.64L119.27 11.98L119.27 11.98Q118.57 12.30 118.34 12.39L118.34 12.39L118.34 12.39Q118.09 12.48 117.45 12.61L117.45 12.61L117.45 12.61Q116.84 12.74 116.23 12.74L116.23 12.74L116.23 12.74Q114.93 12.74 113.96 12.37L113.96 12.37L113.96 12.37Q112.97 12.00 112.36 11.36L112.36 11.36L112.36 11.36Q111.77 10.76 111.45 9.94L111.45 9.94L111.45 9.94Q111.14 9.15 111.14 8.24ZM128.87 3.64L128.86 3.08L136.07 3.08L136.07 3.08Q136.08 4.14 136.14 5.28L136.14 5.28L135.59 5.30L135.59 5.30Q135.58 4.66 135.52 4.25L135.52 4.25L135.52 4.25Q135.48 3.89 135.43 3.80L135.43 3.80L135.43 3.80Q135.37 3.71 135.26 3.69L135.26 3.69L135.26 3.69Q135.16 3.68 134.57 3.68L134.57 3.68L132.19 3.68L132.19 3.68Q131.65 3.68 131.50 3.77L131.50 3.77L131.50 3.77Q131.38 3.86 131.38 4.33L131.38 4.33L131.38 6.28L131.38 6.28Q131.38 6.69 131.43 6.76L131.43 6.76L131.43 6.76Q131.50 6.84 131.84 6.84L131.84 6.84L133.96 6.84L133.96 6.84Q134.32 6.84 134.40 6.73L134.40 6.73L134.40 6.73Q134.48 6.63 134.49 6.14L134.49 6.14L134.49 5.61L135.00 5.63L135.00 8.97L134.49 8.97L134.49 8.24L134.49 8.24Q134.49 7.66 134.42 7.57L134.42 7.57L134.42 7.57Q134.33 7.46 133.98 7.46L133.98 7.46L131.89 7.46L131.89 7.46Q131.55 7.46 131.47 7.54L131.47 7.54L131.47 7.54Q131.38 7.63 131.38 7.89L131.38 7.89L131.38 11.20L131.38 11.20Q131.38 11.57 131.47 11.67L131.47 11.67L131.47 11.67Q131.55 11.77 131.82 11.77L131.82 11.77L131.82 11.77Q134.74 11.75 135.27 11.69L135.27 11.69L135.27 11.69Q135.79 11.63 135.87 11.38L135.87 11.38L135.88 11.36L135.88 11.35L136.11 10.17L136.59 10.25L136.24 12.41L129.14 12.41L129.14 11.87L129.51 11.87L129.51 11.87Q130.07 11.87 130.15 11.80L130.15 11.80L130.15 11.80Q130.25 11.72 130.25 11.33L130.25 11.33L130.25 4.24L130.25 4.24Q130.25 3.82 130.09 3.73L130.09 3.73L130.09 3.73Q129.92 3.64 129.27 3.64L129.27 3.64L128.87 3.64ZM144.74 5.35L144.25 5.33L144.25 5.33Q144.37 4.17 144.45 3.08L144.45 3.08L152.53 3.08L152.53 3.08Q152.45 4.13 152.42 4.53L152.42 4.53L152.42 4.53Q152.38 5.26 152.36 5.32L152.36 5.32L151.86 5.30L151.86 5.30Q151.94 4.34 151.94 4.16L151.94 4.16L151.94 4.16Q151.94 3.88 151.80 3.79L151.80 3.79L151.80 3.79Q151.63 3.69 151.22 3.69L151.22 3.69L149.62 3.69L149.62 3.69Q149.11 3.69 148.99 3.79L148.99 3.79L148.99 3.79Q148.89 3.87 148.89 4.36L148.89 4.36L148.89 11.22L148.89 11.22Q148.89 11.66 149.03 11.76L149.03 11.76L149.03 11.76Q149.19 11.87 149.70 11.87L149.70 11.87L150.26 11.87L150.27 12.41L146.58 12.40L146.58 11.87L146.80 11.87L146.80 11.87Q147.47 11.87 147.62 11.79L147.62 11.79L147.62 11.79Q147.76 11.70 147.76 11.28L147.76 11.28L147.76 4.48L147.76 4.48Q147.76 3.92 147.66 3.80L147.66 3.80L147.66 3.80Q147.56 3.69 147.14 3.69L147.14 3.69L145.67 3.69L145.67 3.69Q145.48 3.69 145.41 3.71L145.41 3.71L145.41 3.71Q145.35 3.72 145.24 3.72L145.24 3.72L145.24 3.72Q145.21 3.72 145.09 3.79L145.09 3.79L145.09 3.79Q145.01 3.84 144.98 3.86L144.98 3.86L144.98 3.86Q144.96 3.88 144.92 3.99L144.92 3.99L144.92 3.99Q144.89 4.05 144.86 4.14L144.86 4.14L144.86 4.14Q144.83 4.21 144.81 4.36L144.81 4.36L144.81 4.36Q144.79 4.59 144.79 4.61L144.79 4.61L144.79 4.61Q144.79 4.80 144.77 4.95L144.77 4.95L144.77 4.95Q144.77 5.02 144.76 5.15L144.76 5.15L144.76 5.15Q144.76 5.29 144.74 5.35L144.74 5.35ZM160.64 3.64L160.27 3.64L160.27 3.08L163.75 3.08L163.75 3.64L163.39 3.64L163.39 3.64Q162.89 3.64 162.74 3.75L162.74 3.75L162.74 3.75Q162.60 3.84 162.59 4.25L162.59 4.25L162.59 6.91L167.15 6.91L167.15 4.14L167.15 4.14Q167.15 3.77 167.05 3.71L167.05 3.71L167.05 3.71Q166.94 3.64 166.41 3.64L166.41 3.64L165.83 3.64L165.81 3.08L169.37 3.08L169.37 3.64L168.98 3.64L168.98 3.64Q168.50 3.64 168.39 3.74L168.39 3.74L168.39 3.74Q168.28 3.83 168.28 4.22L168.28 4.22L168.28 11.29L168.28 11.29Q168.28 11.67 168.42 11.77L168.42 11.77L168.42 11.77Q168.57 11.87 169.12 11.87L169.12 11.87L169.59 11.87L169.58 12.41L166.09 12.41L166.08 11.87L166.49 11.87L166.49 11.87Q166.95 11.87 167.05 11.77L167.05 11.77L167.05 11.77Q167.15 11.67 167.15 11.25L167.15 11.25L167.15 7.58L162.59 7.58L162.59 11.25L162.59 11.25Q162.59 11.67 162.75 11.77L162.75 11.77L162.75 11.77Q162.90 11.87 163.60 11.87L163.60 11.87L164.01 11.87L163.98 12.41L160.40 12.41L160.38 11.87L160.75 11.87L160.75 11.87Q161.29 11.87 161.36 11.80L161.36 11.80L161.36 11.80Q161.46 11.70 161.46 11.25L161.46 11.25L161.46 4.09L161.46 4.09Q161.46 3.76 161.32 3.71L161.32 3.71L161.32 3.71Q161.15 3.64 160.64 3.64L160.64 3.64ZM177.34 3.64L177.33 3.08L184.54 3.08L184.54 3.08Q184.56 4.14 184.61 5.28L184.61 5.28L184.06 5.30L184.06 5.30Q184.05 4.66 184.00 4.25L184.00 4.25L184.00 4.25Q183.96 3.89 183.90 3.80L183.90 3.80L183.90 3.80Q183.85 3.71 183.73 3.69L183.73 3.69L183.73 3.69Q183.63 3.68 183.05 3.68L183.05 3.68L180.67 3.68L180.67 3.68Q180.12 3.68 179.98 3.77L179.98 3.77L179.98 3.77Q179.85 3.86 179.85 4.33L179.85 4.33L179.85 6.28L179.85 6.28Q179.85 6.69 179.91 6.76L179.91 6.76L179.91 6.76Q179.98 6.84 180.32 6.84L180.32 6.84L182.43 6.84L182.43 6.84Q182.79 6.84 182.88 6.73L182.88 6.73L182.88 6.73Q182.96 6.63 182.96 6.14L182.96 6.14L182.96 5.61L183.48 5.63L183.48 8.97L182.96 8.97L182.96 8.24L182.96 8.24Q182.96 7.66 182.89 7.57L182.89 7.57L182.89 7.57Q182.81 7.46 182.46 7.46L182.46 7.46L180.36 7.46L180.36 7.46Q180.02 7.46 179.94 7.54L179.94 7.54L179.94 7.54Q179.85 7.63 179.85 7.89L179.85 7.89L179.85 11.20L179.85 11.20Q179.85 11.57 179.94 11.67L179.94 11.67L179.94 11.67Q180.02 11.77 180.30 11.77L180.30 11.77L180.30 11.77Q183.22 11.75 183.74 11.69L183.74 11.69L183.74 11.69Q184.26 11.63 184.34 11.38L184.34 11.38L184.35 11.36L184.36 11.35L184.58 10.17L185.06 10.25L184.71 12.41L177.61 12.41L177.61 11.87L177.98 11.87L177.98 11.87Q178.54 11.87 178.62 11.80L178.62 11.80L178.62 11.80Q178.72 11.72 178.72 11.33L178.72 11.33L178.72 4.24L178.72 4.24Q178.72 3.82 178.57 3.73L178.57 3.73L178.57 3.73Q178.40 3.64 177.74 3.64L177.74 3.64L177.34 3.64ZM193.27 3.64L192.88 3.64L192.90 3.08L196.12 3.08L196.12 3.08Q197.25 3.08 197.85 3.21L197.85 3.21L197.85 3.21Q198.50 3.37 198.96 3.75L198.96 3.75L198.96 3.75Q199.96 4.57 199.96 5.71L199.96 5.71L199.96 5.71Q199.96 6.43 199.49 7.04L199.49 7.04L199.49 7.04Q199.00 7.66 197.97 7.92L197.97 7.92L200.66 11.49L200.66 11.49Q200.96 11.87 201.26 11.87L201.26 11.87L201.86 11.87L201.89 12.41L199.86 12.41L196.86 8.10L196.69 8.10L196.69 8.10Q196.65 8.10 196.59 8.11L196.59 8.11L196.59 8.11Q196.54 8.11 196.53 8.11L196.53 8.11L196.53 8.11Q195.64 8.11 195.25 8.03L195.25 8.03L195.25 11.46L195.25 11.46Q195.25 11.76 195.39 11.81L195.39 11.81L195.39 11.81Q195.51 11.87 196.22 11.87L196.22 11.87L196.93 11.87L196.90 12.41L193.18 12.41L193.18 11.87L193.50 11.87L193.50 11.87Q193.96 11.87 194.03 11.81L194.03 11.81L194.03 11.81Q194.11 11.74 194.11 11.46L194.11 11.46L194.11 4.14L194.11 4.14Q194.11 3.82 193.92 3.73L193.92 3.73L193.92 3.73Q193.70 3.64 193.27 3.64L193.27 3.64ZM195.25 4.28L195.25 7.57L195.25 7.57Q195.43 7.70 196.14 7.71L196.14 7.71L196.14 7.71Q197.42 7.71 198.00 7.27L198.00 7.27L198.00 7.27Q198.58 6.84 198.58 5.92L198.58 5.92L198.58 5.92Q198.58 4.92 197.81 4.27L197.81 4.27L197.81 4.27Q197.05 3.64 195.67 3.64L195.67 3.64L195.67 3.64Q195.42 3.64 195.34 3.75L195.34 3.75L195.34 3.75Q195.25 3.84 195.25 4.28L195.25 4.28Z"></path></g></svg>