<svg data-v-fde0c5aa="" xmlns="http://www.w3.org/2000/svg" viewBox="0 0 300 300" class="font"><!----><defs data-v-fde0c5aa=""><!----></defs><rect data-v-fde0c5aa="" fill="#E3CFB5" x="0" y="0" width="300px" height="300px" class="logo-background-square"></rect><defs data-v-fde0c5aa=""><!----></defs><g data-v-fde0c5aa="" id="34832a05-63b3-4b00-a10d-02c8fda4536f" fill="#776957" transform="matrix(2.691789929815734,0,0,2.691789929815734,36.44683715145323,127.11978559656625)"><path d="M1.32 13.78L4.24 13.78C6.24 13.78 7.71 12.91 7.71 11.06C7.71 9.80 6.99 9.10 5.66 8.88L5.66 8.82C6.73 8.53 7.25 7.67 7.25 6.80C7.25 5.11 5.88 4.54 4.00 4.54L1.32 4.54ZM2.93 8.37L2.93 5.80L3.89 5.80C5.08 5.80 5.67 6.15 5.67 7C5.67 7.87 5.14 8.37 3.85 8.37ZM2.93 12.52L2.93 9.53L4.07 9.53C5.45 9.53 6.13 9.97 6.13 10.96C6.13 12.01 5.42 12.52 4.07 12.52ZM12.73 5.42C13.41 5.42 13.92 4.96 13.92 4.24C13.92 3.53 13.41 3.04 12.73 3.04C12.05 3.04 11.54 3.53 11.54 4.24C11.54 4.96 12.05 5.42 12.73 5.42ZM9.53 13.78L16.16 13.78L16.16 12.46L13.65 12.46L13.65 6.64L9.53 6.64L9.53 7.91L12.04 7.91L12.04 12.46L9.53 12.46ZM21.41 13.96C23.00 13.96 24.46 12.53 24.46 10.08C24.46 7.88 23.42 6.45 21.64 6.45C20.90 6.45 20.12 6.83 19.52 7.43L19.56 6.16L19.56 3.63L17.96 3.63L17.96 13.78L19.22 13.78L19.36 12.98L19.40 12.98C20.02 13.59 20.76 13.96 21.41 13.96ZM21.08 12.63C20.66 12.63 20.08 12.43 19.56 11.94L19.56 8.68C20.13 8.06 20.68 7.78 21.21 7.78C22.32 7.78 22.81 8.67 22.81 10.11C22.81 11.75 22.06 12.63 21.08 12.63ZM29.53 5.42C30.21 5.42 30.72 4.96 30.72 4.24C30.72 3.53 30.21 3.04 29.53 3.04C28.85 3.04 28.34 3.53 28.34 4.24C28.34 4.96 28.85 5.42 29.53 5.42ZM26.33 13.78L32.96 13.78L32.96 12.46L30.45 12.46L30.45 6.64L26.33 6.64L26.33 7.91L28.84 7.91L28.84 12.46L26.33 12.46ZM39.21 13.96C40.01 13.96 40.50 13.78 41.17 13.54L40.80 12.35C40.32 12.56 39.96 12.64 39.61 12.64C38.91 12.64 38.37 12.26 38.37 11.30L38.37 3.63L34.61 3.63L34.61 4.90L36.78 4.90L36.78 11.20C36.78 12.95 37.62 13.96 39.21 13.96ZM46.20 13.96C48.02 13.96 49.66 12.59 49.66 10.21C49.66 7.83 48.02 6.45 46.20 6.45C44.39 6.45 42.76 7.83 42.76 10.21C42.76 12.59 44.39 13.96 46.20 13.96ZM46.20 12.64C45.08 12.64 44.41 11.68 44.41 10.21C44.41 8.75 45.08 7.77 46.20 7.77C47.33 7.77 48.01 8.75 48.01 10.21C48.01 11.68 47.33 12.64 46.20 12.64ZM53.79 13.78L55.41 13.78L55.41 5.89L58.30 5.89L58.30 4.54L50.92 4.54L50.92 5.89L53.79 5.89ZM63.42 13.96C64.43 13.96 65.38 13.59 66.11 13.12L65.56 12.11C64.95 12.49 64.34 12.70 63.63 12.70C62.38 12.70 61.42 11.96 61.32 10.64L66.32 10.64C66.35 10.46 66.39 10.15 66.39 9.84C66.39 7.87 65.25 6.45 63.21 6.45C61.40 6.45 59.67 7.88 59.67 10.21C59.67 12.56 61.33 13.96 63.42 13.96ZM61.31 9.53C61.49 8.34 62.31 7.70 63.24 7.70C64.33 7.70 64.92 8.39 64.92 9.53ZM72.03 13.96C73.01 13.96 74.02 13.57 74.82 12.87L74.14 11.84C73.61 12.28 72.95 12.64 72.17 12.64C70.81 12.64 69.89 11.68 69.89 10.21C69.89 8.75 70.84 7.77 72.21 7.77C72.83 7.77 73.37 8.01 73.92 8.48L74.68 7.48C74.10 6.90 73.23 6.45 72.14 6.45C70.04 6.45 68.24 7.83 68.24 10.21C68.24 12.59 69.87 13.96 72.03 13.96ZM76.76 13.78L78.36 13.78L78.36 8.89C79.00 8.19 79.46 7.83 80.15 7.83C81.09 7.83 81.44 8.39 81.44 9.56L81.44 13.78L83.05 13.78L83.05 9.35C83.05 7.50 82.32 6.45 80.74 6.45C79.69 6.45 78.92 7.03 78.27 7.71L78.36 6.16L78.36 3.63L76.76 3.63Z"></path></g><!----><!----></svg>